<svg width="197" height="50" viewBox="0 0 197 50" fill="none" xmlns="http://www.w3.org/2000/svg">
<g clip-path="url(#clip0_1_6704)" filter="url(#filter0_d_1_6704)">
<path d="M80.3371 16.0495L86.532 16.0395C85.488 9.46493 79.778 4.89354 72.3567 4.90551C63.5757 4.91967 56.9969 11.3762 57.0143 22.172C57.0314 32.7749 63.3348 39.341 72.5917 39.3261C80.8995 39.3127 86.8383 33.9676 86.8243 25.3306L86.8179 21.3066L73.2017 21.3286L73.2094 26.0721L80.9434 26.0596C80.8532 30.8385 77.6628 33.8684 72.6155 33.8765C66.9972 33.8856 63.1397 29.6886 63.1275 22.097C63.1153 14.5541 67.0245 10.3609 72.447 10.3521C76.4935 10.3456 79.2654 12.4997 80.3371 16.0495Z" fill="#171321"/>
<path d="M90.9416 38.8375L96.8726 38.828L96.8321 13.7121L90.9011 13.7217L90.9416 38.8375ZM93.886 9.7255C95.7705 9.72246 97.3074 8.2782 97.3046 6.5133C97.3017 4.7484 95.7602 3.2928 93.8756 3.29584C91.9911 3.29888 90.4379 4.74046 90.4407 6.52437C90.4436 8.30827 91.9742 9.72859 93.8751 9.72552L93.886 9.7255Z" fill="#171321"/>
<path d="M114.593 13.6836L109.627 13.6916L109.617 7.65838L103.686 7.66795L103.696 13.7012L100.125 13.7069L100.133 18.2875L103.703 18.2818L103.726 32.2543C103.701 36.9815 107.147 39.3083 111.602 39.1627C112.788 39.1374 113.964 38.9368 115.092 38.5678L114.084 33.9373C113.518 34.0851 112.935 34.1637 112.35 34.1709C110.857 34.1733 109.659 33.6512 109.655 31.2618L109.634 18.2586L114.6 18.2506L114.593 13.6836Z" fill="#171321"/>
<path d="M119.224 38.792L140.082 38.7584L140.073 33.67L125.296 33.6939L125.25 5.27633L119.169 5.28613L119.224 38.792Z" fill="#171321"/>
<path d="M151.444 39.2478C155.393 39.2414 157.747 37.3885 158.826 35.2771L159.022 35.2768L159.028 38.7278L164.738 38.7186L164.711 21.9005C164.701 15.259 159.275 13.2721 154.472 13.2798C149.18 13.2884 145.121 15.649 143.818 20.2317L149.359 21.0102C149.943 19.2905 151.613 17.8162 154.521 17.8115C157.275 17.807 158.784 19.2111 158.788 21.682L158.788 21.7797C158.791 23.4794 157.004 23.5665 152.564 24.0461C147.684 24.578 143.017 26.0409 143.026 31.7022C143.018 36.6439 146.642 39.2555 151.444 39.2478ZM153.387 34.9003C150.912 34.9043 149.14 33.7776 149.137 31.6027C149.133 29.3273 151.114 28.3765 153.754 27.9948C155.312 27.7805 158.425 27.3818 159.191 26.7615L159.195 29.7211C159.216 32.5096 156.957 34.8864 153.387 34.8921L153.387 34.9003Z" fill="#171321"/>
<path d="M169.106 38.7115L174.939 38.702L174.933 34.7432L175.275 34.7427C176.214 36.574 178.168 39.1394 182.494 39.1324C188.425 39.1229 192.859 34.4184 192.845 26.1424C192.832 17.7659 188.253 13.2253 182.436 13.2347C177.995 13.2418 176.148 15.9112 175.248 17.7291L174.998 17.7295L174.977 5.19601L169.052 5.20557L169.106 38.7115ZM174.902 26.1387C174.895 21.2513 176.986 18.101 180.804 18.0948C184.753 18.0885 186.792 21.4385 186.8 26.1195C186.808 30.8006 184.749 34.2685 180.83 34.2749C177.045 34.281 174.91 31.0125 174.902 26.1387Z" fill="#171321"/>
<path d="M45.8235 16.8817L45.7661 16.7298L39.9767 1.72387C39.8596 1.42923 39.6514 1.17946 39.3828 1.01072C39.1821 0.882984 38.9544 0.803939 38.7178 0.779918C38.4811 0.755896 38.2422 0.787569 38.0198 0.872395C37.7978 0.957225 37.5984 1.09285 37.4382 1.26839C37.2781 1.44394 37.1612 1.65453 37.0971 1.88328L33.2248 13.785L17.4658 13.8104L13.5551 1.92125C13.4898 1.69305 13.372 1.48324 13.2111 1.30854C13.0503 1.13385 12.8507 0.999111 12.6284 0.915069C12.4061 0.831028 12.1672 0.80001 11.9308 0.82449C11.6944 0.848972 11.4669 0.928271 11.2666 1.05607C10.9984 1.22568 10.7912 1.47611 10.675 1.77113L4.93675 16.7984L4.87716 16.9478C4.05103 19.114 3.95266 21.4896 4.59687 23.7166C5.24108 25.9435 6.59296 27.9009 8.44867 29.2936L8.47045 29.3098L8.51943 29.3478L17.3001 35.8963L21.6565 39.172L24.303 41.1634C24.6135 41.397 24.9918 41.5229 25.3805 41.5223C25.7692 41.5217 26.147 41.3945 26.4568 41.16L29.0969 39.16L33.4427 35.8703L42.2647 29.2553L42.2891 29.2363C44.1402 27.8382 45.4858 25.877 46.1235 23.6485C46.7609 21.4201 46.6556 19.0452 45.8235 16.8817Z" fill="#E24329"/>
<path d="M45.8235 16.8817L45.7661 16.7298C42.9582 17.3098 40.3133 18.5028 38.0214 20.2232L25.3779 29.8012L33.4481 35.8703L42.2701 29.2553L42.2946 29.2363C44.1448 27.8374 45.4894 25.8759 46.1259 23.6476C46.7622 21.4192 46.6561 19.0446 45.8235 16.8817Z" fill="#FC6D26"/>
<path d="M17.3002 35.8963L21.6565 39.172L24.303 41.1634C24.6135 41.397 24.9918 41.5229 25.3805 41.5223C25.7692 41.5217 26.147 41.3945 26.4568 41.16L29.0969 39.16L33.4426 35.8703L25.3725 29.8012L17.3002 35.8963Z" fill="#FCA326"/>
<path d="M12.69 20.264C10.3933 18.5519 7.74557 17.3684 4.93674 16.7983L4.87716 16.9478C4.05103 19.114 3.95265 21.4896 4.59686 23.7165C5.24107 25.9434 6.59295 27.9009 8.44866 29.2935L8.47044 29.3098L8.51943 29.3477L17.3001 35.8963L25.3562 29.8012L12.69 20.264Z" fill="#FC6D26"/>
</g>
<defs>
<filter id="filter0_d_1_6704" x="-0.0820312" y="0.252563" width="197.066" height="49.3048" filterUnits="userSpaceOnUse" color-interpolation-filters="sRGB">
<feFlood flood-opacity="0" result="BackgroundImageFix"/>
<feColorMatrix in="SourceAlpha" type="matrix" values="0 0 0 0 0 0 0 0 0 0 0 0 0 0 0 0 0 0 127 0" result="hardAlpha"/>
<feOffset dy="4"/>
<feGaussianBlur stdDeviation="2"/>
<feComposite in2="hardAlpha" operator="out"/>
<feColorMatrix type="matrix" values="0 0 0 0 0 0 0 0 0 0 0 0 0 0 0 0 0 0 0.25 0"/>
<feBlend mode="normal" in2="BackgroundImageFix" result="effect1_dropShadow_1_6704"/>
<feBlend mode="normal" in="SourceGraphic" in2="effect1_dropShadow_1_6704" result="shape"/>
</filter>
<clipPath id="clip0_1_6704">
<rect width="189" height="41" fill="white" transform="translate(3.91797 0.557373) rotate(-0.0924153)"/>
</clipPath>
</defs>
</svg>
